<svg width="197" height="38" viewBox="0 0 197 38" fill="none" xmlns="http://www.w3.org/2000/svg">
<path d="M16.2779 37.7671L15.8911 37.5876C11.5977 35.6006 8.13029 32.7121 5.86604 29.2383C0.43693 20.908 0.257442 12.3021 0.0684242 3.19189C0.0533345 2.50094 0.0374506 1.80999 0.022361 1.11507L-0.00146484 0.17395H32.539L32.5168 1.11586C32.4993 1.81475 32.485 2.51047 32.4707 3.20698C32.2785 12.3116 32.0991 20.9119 26.6715 29.2391C24.4121 32.7081 20.9533 35.5934 16.6647 37.5884L16.2779 37.7671Z" fill="white"/>
<path d="M28.8675 21.7648L16.2764 12.2583L3.78928 22.0991C1.47023 15.5105 1.55918 8.65106 1.38843 1.61292H31.1516C30.9825 8.53193 31.0659 15.2778 28.8675 21.7648Z" fill="#FFD74F"/>
<path d="M27.1429 25.8394C26.6902 26.7162 26.1867 27.5842 25.622 28.4515C23.3538 31.9356 19.9816 34.512 16.2775 36.2346C12.5551 34.512 9.18614 31.9356 6.91792 28.4515C6.43029 27.7057 5.98713 26.9568 5.58685 26.2031L16.2759 17.1938L27.1429 25.8394Z" fill="#FFD74F"/>
<path d="M16.278 36.2342C12.5556 34.5116 9.18662 31.9352 6.9184 28.4511C1.38604 19.9636 1.61557 10.9463 1.38843 1.61292H31.1516C30.9237 10.9463 31.154 19.9628 25.6225 28.4511C23.3534 31.9352 19.9821 34.5116 16.278 36.2342Z" stroke="#231F20" stroke-width="0.91515"/>
<path d="M7.57078 6.71175C6.0626 6.39169 4.71962 5.27267 5.04524 3.84868C5.04842 3.83439 4.98647 3.48018 4.85781 3.43253C4.84669 3.42776 4.82525 3.38964 4.80222 3.38249C4.74503 3.3682 4.69738 3.34199 4.64894 3.30704C4.63226 3.29672 4.56237 3.27131 4.56237 3.24669C4.53457 3.30466 4.54172 3.36026 4.5028 3.41108C4.48613 3.43094 4.46468 3.46112 4.44324 3.47144C4.41624 3.48415 4.41385 3.51036 4.39321 3.52942C4.27964 3.64299 4.34079 3.81533 4.35826 3.94478C4.36382 3.97814 4.37732 4.01944 4.33682 4.02738C4.28837 4.03453 4.32729 4.01229 4.27169 3.97814C4.25899 3.9694 4.23913 3.94875 4.22563 3.9424C4.20101 3.93049 4.10809 3.91778 4.09062 3.89395C4.07473 3.87013 4.08268 3.86298 4.05964 3.84313C4.00723 3.79627 4.00246 3.70176 3.96434 3.60487C3.95719 3.58819 3.9421 3.5048 3.9421 3.48415C3.9421 3.38964 3.6959 3.23477 3.792 3.3134C3.82536 3.33961 3.78724 3.27448 3.65461 3.24192C3.57201 3.22048 3.47591 3.22445 3.3822 3.23874C3.36314 3.24033 3.34487 3.25463 3.33137 3.26416C3.23686 3.33961 3.14632 3.43014 3.02163 3.43491C3.04228 3.41982 3.0534 3.44603 3.06373 3.45874C3.12329 3.53339 3.07961 3.62949 3.11455 3.71288C3.1495 3.79627 3.21065 3.85901 3.27975 3.91619C3.34884 3.96861 3.46876 3.89793 3.52277 3.99164C3.52277 3.99164 3.63396 4.01864 3.52356 4.12904C3.32184 4.33473 3.09549 4.16954 2.92712 4.54837C3.18127 4.43877 3.21065 4.82634 3.31787 4.84143C3.80391 4.90655 4.17401 4.99153 4.44006 5.48552C4.60287 5.78572 4.14859 5.80002 4.55919 5.86991C4.76886 5.90485 4.90864 6.01286 5.01268 6.15899C5.12466 6.31307 5.13895 6.52353 5.25967 6.66887C5.34465 6.77291 5.37721 6.79276 5.48125 6.88012C5.52811 6.91824 5.67662 6.95636 5.7346 6.97066C5.79019 6.98654 5.82355 7.01514 5.87597 7.03499C5.93235 7.05485 5.99192 7.07549 6.04036 7.11441C6.08166 7.14856 6.18491 7.1843 6.20794 7.23036C6.25082 7.31296 6.21588 7.39635 6.26115 7.48053C6.27544 7.50198 6.34057 7.48292 6.36519 7.49165C6.3906 7.50198 6.44858 7.50595 6.46446 7.50198C6.56374 7.47894 6.58677 7.471 6.66063 7.46306C6.7734 7.45035 6.7599 7.48609 6.90524 7.47894C6.93701 7.47894 6.94813 7.50198 6.99022 7.50198C7.01722 7.50198 7.06726 7.53136 7.0752 7.50595C7.11967 7.36855 7.19274 7.23354 7.27216 7.09932C7.35475 6.9651 7.34681 6.95081 7.45006 6.81023C7.43814 6.8142 7.58428 6.71334 7.57078 6.71175Z" fill="#CD1543"/>
<path d="M3.80832 6.88718C4.25069 7.12464 4.19112 7.71155 4.58663 7.90136C5.29664 8.23889 6.14087 8.47001 6.89377 8.09991C6.7254 8.62249 6.91044 9.06168 6.83817 9.12204C6.60309 9.30947 5.88435 9.08471 5.42371 8.90205C5.10683 8.77656 4.84951 9.24832 4.50007 9.20781C4.51674 9.16413 4.55725 9.045 4.53422 8.96876C4.47862 8.79801 4.43335 8.75115 4.15141 8.78451C3.96875 8.80357 4.04499 8.95288 3.771 9.08868C3.66219 9.02515 3.43108 8.95288 3.39693 9.15778C3.38025 9.25388 3.18806 8.8258 3.22777 8.75274C3.40805 8.4295 3.44299 8.35485 3.43108 8.28655C3.40964 8.17933 3.02128 8.03876 2.97204 8.1285C2.84814 8.33896 2.49234 7.44311 3.54544 7.50188C3.26271 7.31922 3.29527 7.28745 3.3604 7.07222C3.36834 7.04125 3.26192 6.93165 3.19123 7.0071C3.16741 6.92292 3.223 6.83397 3.28813 6.82523C3.46285 6.79982 3.63201 6.79187 3.80832 6.88718Z" fill="#CD1543"/>
<path d="M5.90125 4.72086C6.53978 4.86858 7.4944 4.045 8.04716 5.01551C7.63894 4.8662 6.43018 5.51426 5.90125 4.72086Z" fill="#CD1543"/>
<path d="M11.2387 6.13212C11.2268 6.96364 10.3643 7.86108 11.064 8.65448C10.7773 8.64971 10.4389 8.55044 10.2404 8.3908C10.1292 8.30185 10.1546 8.78631 10.1697 8.88717C10.1824 8.97136 9.63917 8.37413 9.43507 8.51787C8.85769 8.93324 8.60752 9.10399 7.75138 9.13576C7.51391 9.14449 7.39002 9.33669 7.32251 9.54397C7.12873 9.14688 7.27168 8.24388 7.38366 7.8436C7.68705 6.74285 8.79177 6.41723 9.67809 5.88989C10.3127 5.51344 10.5851 4.77405 10.5533 4.05292C11.0044 4.61997 11.2498 5.42449 11.2387 6.13212Z" fill="#CD1543"/>
<path d="M7.18354 15.4963C7.29155 15.5209 7.21055 15.6098 7.16766 15.6384C7.08189 15.6972 7.01835 15.7687 6.96435 15.856C6.92225 15.9227 6.89207 15.9918 6.90955 16.0736C6.91908 16.1332 6.93893 16.184 6.96117 16.2412C6.97626 16.2738 7.00644 16.292 7.03026 16.3206C7.04297 16.331 7.08109 16.3786 7.08189 16.3842C7.05886 16.3008 7.1756 16.2158 7.2026 16.2309C7.7506 16.5501 7.78316 15.9045 8.11275 15.6853C8.25173 15.5908 8.56703 15.7004 8.48682 15.9855C8.81402 15.8092 8.91012 15.37 9.16585 15.0936C9.72894 14.4821 10.5207 14.0739 11.2713 13.7427C10.9989 13.456 10.5994 13.2114 10.3969 12.8818C10.2968 12.7174 10.1769 12.3965 10.3984 12.4561C11.3221 12.6959 11.8391 12.1344 11.94 11.4069C13.3076 11.5856 13.6642 10.2927 13.8476 9.31663C13.9366 8.8417 14.1963 8.79961 13.9135 7.9943C13.7952 7.65597 14.5187 7.54558 14.3948 6.96185C14.3607 6.80063 14.1621 6.6402 14.0454 6.62193C14.1566 6.93643 13.6308 7.01347 13.572 7.14292C13.4839 7.34544 13.3536 7.50587 13.337 7.71474C12.8922 7.10004 13.252 6.35747 13.6705 5.78009C14.2797 4.93983 15.5448 5.38061 16.0777 5.92225C16.088 5.65063 15.876 5.30675 15.7037 5.13917C16.2016 5.07484 16.7417 5.37902 17.4215 5.02004C17.813 4.80958 18.2085 4.63168 18.392 4.16867C17.5589 4.28303 16.428 3.64132 15.6767 3.50949C14.2765 3.26567 13.337 4.22188 12.835 5.36155C12.3355 6.50042 12.654 7.34941 13.1972 8.20079C13.3346 8.41602 12.7167 8.27544 12.4729 8.40093C12.2362 8.52323 12.1393 8.8147 12.1933 9.0744C12.4911 8.75434 13.2837 8.9513 13.3552 9.50088C13.4521 10.2395 12.7056 11.3188 11.9837 10.9964C11.2117 10.6493 10.7741 9.83445 10.5176 8.91953C9.85601 9.48738 8.63771 9.01801 8.06986 9.57236C7.53061 10.1005 8.91092 10.4579 9.4462 10.7081C9.64396 10.8018 9.84171 11.0027 9.80994 11.2529C8.96889 10.7605 7.9555 11.3188 8.00395 12.2178C8.04286 12.8897 8.86565 13.3067 9.54865 13.3638C9.83456 13.3877 10.0061 13.7038 9.65905 13.9206C9.05228 14.301 8.37404 14.7259 7.71883 14.0373C7.60923 13.9222 7.21769 13.996 7.13907 14.2041C7.10333 14.3066 7.08983 14.4614 7.10492 14.5623C7.14145 14.5019 7.18275 14.413 7.23755 14.4193C7.30188 14.4289 7.3813 14.498 7.37256 14.5448C7.31617 14.8808 6.87301 14.6639 6.73562 14.9252C6.73324 14.9308 6.72609 14.9371 6.72132 14.9435C6.71338 14.9641 6.70226 14.9824 6.69114 15.0023C6.60219 15.1794 6.47909 15.2929 6.69909 15.4303C6.69432 15.3978 6.80868 15.5725 6.8071 15.6035C6.81742 15.4399 6.98658 15.4446 6.98658 15.4446L7.08506 15.4558L7.18354 15.4963Z" fill="#CD1543"/>
<path d="M4.3353 12.3331C4.24953 12.3069 4.1582 12.3386 4.07243 12.3784C4.01763 12.4006 3.95171 12.376 3.91835 12.4308C3.90009 12.4657 3.88579 12.503 3.8977 12.5404C3.90247 12.5618 3.912 12.5991 3.92947 12.6126C3.81352 12.6023 3.7063 12.5253 3.61656 12.4459C3.58876 12.4212 3.5697 12.3903 3.5419 12.3633C3.52523 12.3442 3.52602 12.3101 3.51649 12.2854C3.50299 12.2561 3.50775 12.2267 3.50775 12.1989C3.50458 12.1195 3.50299 12.0376 3.53873 11.9646C3.55541 11.9304 3.57049 11.8971 3.59591 11.8669C3.61418 11.8431 3.63403 11.8248 3.65547 11.8042C3.71345 11.747 3.77937 11.7041 3.85879 11.6811C3.97156 11.6469 4.09546 11.6564 4.20347 11.7041C4.28924 11.7422 4.39487 11.7374 4.48461 11.7621C4.53306 11.7756 4.6236 11.6366 4.55927 11.6183C4.27177 11.55 4.27336 11.473 4.16535 11.1807C4.11611 11.1251 4.04939 11.191 4.0216 11.2196C4.02001 10.6637 4.68078 10.6264 4.95716 10.8472C5.36537 11.1752 5.05881 11.82 5.56074 11.9964C5.82203 12.0877 6.09921 12.1592 6.36844 12.0456C6.85449 11.8391 6.37003 11.3507 6.52648 10.9401C6.84337 10.1062 7.54464 10.0633 8.37934 10.8646C7.632 11.1124 7.28335 12.102 7.69157 12.754C7.03318 12.4935 6.20166 12.9311 5.73864 13.2258C6.16989 12.7953 5.56551 12.4475 5.41223 12.5229L5.23036 12.6508C5.143 12.7635 5.13426 12.8763 5.02625 12.9851C4.9651 13.0423 4.93174 13.0526 4.85074 13.0733C4.74114 13.1035 4.67363 13.0955 4.57594 13.032C4.55847 13.0201 4.50129 13.0455 4.48858 13.059C4.43537 13.1249 4.48699 13.1567 4.48541 13.1797C4.47508 13.1726 4.40678 13.1178 4.39725 13.1098C4.33371 13.063 4.26303 13.0217 4.22491 12.9573C4.18599 12.8962 4.15899 12.7342 4.20267 12.6436C4.24794 12.5578 4.33371 12.5293 4.39249 12.4689C4.44728 12.4149 4.38216 12.3283 4.31465 12.318" fill="#CD1543"/>
<path d="M20.3723 4.98759C20.4334 5.0273 20.3683 5.13372 20.3 5.15199C20.219 5.17661 20.107 5.14167 20.0371 5.16867C19.7234 5.28462 19.7226 6.05737 19.7655 5.96763C19.8132 5.86756 20.0459 5.93348 20.1944 5.96127C20.4366 6.0121 20.6201 5.51732 20.7797 5.53161C21.1577 5.56735 21.5104 6.03752 21.6549 6.34407C21.6795 6.40126 21.4969 6.40284 21.4818 6.59186C21.9972 6.54262 22.4324 6.87698 22.8025 7.18274C22.9844 6.86824 23.1663 6.67287 23.3728 6.46956C22.6008 5.71587 21.064 5.48476 21.2999 4.1116C21.3309 3.93608 21.1323 3.78121 21.045 3.69464C20.9457 3.60014 20.7162 3.59378 20.5772 3.55963C20.7241 3.86381 20.4589 3.89319 20.4962 4.37686C20.4962 4.39274 20.4517 4.38162 20.4366 4.37527C20.3453 4.33476 20.2651 4.27758 20.1785 4.22278C20.0975 4.17354 20.0236 4.18863 19.9347 4.19896C19.8823 4.2069 19.833 4.23152 19.7878 4.26408C19.7147 4.3157 19.6774 4.3848 19.6257 4.45707C19.6162 4.47057 19.6067 4.48646 19.5948 4.49916C19.5781 4.51663 19.5463 4.56667 19.5432 4.59447C19.5844 4.59129 19.7083 4.60082 19.7298 4.63338C19.7655 4.68897 19.7671 4.75251 19.8108 4.80731C19.8624 4.87561 19.9061 4.8772 19.9847 4.91056C20.1046 4.96059 20.2111 4.98283 20.3437 4.9733" fill="#CD1543"/>
<path d="M22.3722 4.43567C22.8551 4.40073 23.334 4.02984 23.8685 4.65566C23.77 4.60801 23.654 4.59292 23.5945 4.63898C23.0044 5.1155 22.2872 4.95349 21.9092 4.36419C22.0625 4.34196 22.2491 4.446 22.3722 4.43567Z" fill="#CD1543"/>
<path d="M24.4629 6.18681C25.2555 5.78575 26.0584 5.4641 26.3841 4.4793C26.4468 4.2879 26.5953 4.766 26.6048 4.7938C27.0234 5.99462 26.1879 7.1875 26.3602 8.41294C26.0799 8.24219 25.7646 8.12465 25.4588 8.11512C24.37 8.08414 24.1119 8.74571 24.0515 8.68455C23.7521 8.38117 22.8952 8.12465 22.9579 8.18024C22.4488 7.70849 23.9165 6.46637 24.4629 6.18681Z" fill="#CD1543"/>
<path d="M22.2953 14.1797C22.4041 14.3473 22.2595 14.0844 22.3819 14.3687C22.9584 14.1281 23.5517 13.8557 24.1855 14.1106C23.9051 12.8209 24.8486 12.5071 24.9233 12.3134C25.0424 12.0028 24.4126 11.3873 23.9377 11.5589C23.3325 11.7749 23.5843 12.5397 23.4691 13.075C23.4072 13.3728 23.0402 13.5873 22.7361 13.4832C22.2349 13.3093 22.0324 12.8431 21.9109 12.3181C21.8275 11.9711 21.1485 11.929 21.0008 12.2141C20.583 13.0242 21.2493 12.1196 21.2057 12.7343C21.1985 12.8391 20.7188 12.7629 20.6116 13.125C20.5377 13.3728 20.7744 13.5404 21.0698 13.6262C21.1254 13.6436 21.0127 13.5047 21.0873 13.4737C21.1413 13.4554 21.3597 13.5698 21.3335 13.5841C21.0476 13.7588 20.9745 14.163 21.4844 14.3401C21.4884 14.3409 21.4471 14.1932 21.4844 14.1654C21.8855 13.8676 22.3016 14.1885 22.3016 14.1797" fill="#CD1543"/>
<path d="M13.657 22.3446C14.1351 22.5654 14.2876 22.328 14.9174 22.2271C15.0032 22.2112 15.3574 22.4431 15.4615 22.5599C14.8317 22.6591 14.0653 23.2055 13.657 22.3446Z" fill="#CD1543"/>
<path d="M13.4037 22.8476C13.3735 22.8158 13.3314 22.8007 13.2925 22.7864C13.2544 22.769 13.2115 22.7563 13.1662 22.7483C13.1567 22.7451 13.0773 22.7285 13.0646 22.7237C13.0622 22.7531 13.0979 22.8261 13.0773 22.8428C13.028 22.8905 13.0106 22.8786 12.9685 22.9389C12.9542 22.962 12.9383 22.9866 12.9335 23.012C12.9224 23.0684 12.897 23.1295 12.8899 23.1939C12.8883 23.2256 12.9026 23.3011 12.9081 23.3305C12.9121 23.3463 12.947 23.4123 12.9558 23.4305C12.9558 23.4305 13.032 23.5131 13.0272 23.5092C13.117 23.5989 13.0447 23.5481 13.1535 23.6545C13.2083 23.7077 13.1281 23.8014 13.0733 23.7831C12.704 23.6767 12.6524 23.2487 12.3164 23.1168C12.0726 23.0239 11.7192 23.2137 11.6819 23.5862C11.7645 23.5624 11.851 23.5957 11.8661 23.664C11.9567 24.0389 12.5071 23.8149 12.5198 24.0786C12.5301 24.2509 12.1076 24.05 11.9408 24.1588C11.7216 24.3073 11.6906 24.729 11.8852 24.9768C12.0861 24.7854 12.3347 25.0634 12.5301 24.9252C12.6667 24.8283 12.7143 24.6901 12.8541 24.6298C13.2774 24.4431 13.4021 24.8323 13.3084 25.223C13.5355 25.1166 14.074 25.0078 14.1955 24.9713C14.4187 24.9133 14.4298 24.3979 14.703 24.2088C14.3162 24.2065 13.8373 24.0389 13.7285 23.6616C13.719 23.6211 13.746 23.5743 13.75 23.529C13.7595 23.3845 13.746 23.2463 13.692 23.1136C13.6872 23.0993 13.6729 23.0843 13.6618 23.0668C13.6451 23.0453 13.634 23.0231 13.6181 23.0001C13.5792 22.9477 13.5228 22.9238 13.468 22.8873C13.445 22.873 13.414 22.869 13.395 22.8428" fill="#CD1543"/>
<path d="M10.5613 25.5112C10.7297 25.8408 9.89661 25.315 9.5837 25.8003C9.48363 25.9567 9.53684 26.3101 9.53684 26.5071C9.72903 26.334 9.91964 26.6636 10.2778 26.3483C10.3175 26.384 10.3604 26.4054 10.3048 26.4618C10.173 26.5952 10.0991 26.7604 10.169 26.9209C10.2127 27.0265 10.5105 27.2354 10.5121 27.2203C10.5431 27.0035 10.9092 27.2203 10.9672 26.797C10.991 26.6215 11.0426 26.3348 11.2944 26.4388C11.5239 26.5333 11.5716 26.7946 11.5176 27.0511C11.8845 26.9304 12.527 26.5563 12.913 26.8343C13.4292 27.2076 14.2782 27.3601 14.8826 27.5475C14.4807 27.2695 14.3536 26.5436 14.4211 26.0703C13.4697 26.2561 12.4682 26.2252 11.5867 25.8161C11.3444 25.705 11.3778 25.4246 11.3055 25.1959C11.2237 24.9378 10.8973 24.7003 10.6019 24.7202C10.4422 24.7329 10.061 25.068 10.1349 25.0831C10.1102 25.0768 10.111 25.1323 10.0983 25.1546C10.169 25.1101 10.2596 25.1546 10.2921 25.2332C10.3151 25.2856 10.339 25.346 10.3834 25.3889C10.4375 25.4429 10.532 25.4548 10.5613 25.5112Z" fill="#CD1543"/>
<path d="M12.8432 30.7147C13.0259 30.4875 13.18 30.6082 13.2602 30.6106C13.4524 30.617 13.4405 30.8902 13.4206 31.0625C14.1783 30.6972 14.8994 30.1746 15.7873 30.3652C15.2695 29.8236 15.4529 28.6609 16.1836 28.5195C16.186 28.5195 15.7126 28.4417 15.6626 28.4107C15.0265 28.008 14.2497 27.6229 13.8225 28.4671C13.6104 28.8856 14.0004 29.2247 14.2926 29.5734C14.345 29.6369 14.2593 29.6719 14.1918 29.6909C13.4953 29.8688 12.215 29.9737 12.157 28.9333C12.1515 28.8292 11.883 28.7411 11.7107 28.7466C11.1953 28.7633 11.2024 29.4193 11.2612 29.3741C11.3748 29.2875 11.7186 29.3169 11.6773 29.5829C11.6384 29.8283 11.1579 29.4519 10.9673 29.6989C10.8061 29.9046 10.8109 30.2445 10.9237 30.4732C10.9038 30.3882 10.9991 30.3263 11.0515 30.3176C11.5852 30.2294 11.6154 30.4137 11.4574 30.9331C11.4454 30.972 11.6138 31.2968 11.7282 31.327C11.7178 31.323 11.7194 31.2523 11.7353 31.2285C11.752 31.2031 11.7774 31.1848 11.8044 31.1769C11.8616 31.1554 11.9212 31.1602 11.9807 31.1459C12.0077 31.1348 12.0284 31.1189 12.0554 31.1006C12.0967 31.076 12.1261 31.0387 12.157 31.0014C12.2809 30.8449 12.3897 30.6432 12.5994 30.6241C12.6971 30.6146 12.759 30.6583 12.8408 30.7107" fill="#CD1543"/>
<path d="M18.3666 33.1285C18.8534 32.6432 19.2084 31.9968 19.7302 31.5234C19.1576 31.1859 18.4492 30.8341 18.3729 30.0788C18.3666 30.028 18.454 29.9708 18.4722 29.9803C19.268 30.4274 20.3418 30.4616 20.9152 29.6491C21.3782 28.9931 21.5783 27.9249 22.4829 27.8669C22.1827 27.2872 22.521 26.6217 23.015 26.3175C22.8482 26.2539 22.6338 26.1165 22.4464 26.1515C22.2176 26.1904 22.12 26.4993 21.8595 26.5486C22.2693 25.1715 21.479 23.2471 19.9605 23.2789C19.677 23.2837 19.3085 23.5132 19.2148 23.8253C19.1274 24.1176 19.0822 24.4869 19.2942 24.7378C19.7914 25.3319 20.1496 25.9799 19.9931 26.7678C20.3481 26.4612 20.6737 26.0117 20.6626 25.5328C20.6602 25.4113 20.877 25.4979 20.9104 25.4502C21.3258 24.8403 20.6475 24.4646 20.2885 24.081C20.1885 23.977 20.4418 23.8174 20.4752 23.8301C21.7753 24.216 21.8984 25.8203 21.3409 26.8623C21.1923 26.6765 20.6412 26.7384 20.4553 26.6749C21.0653 26.9822 20.9064 27.0251 20.8794 27.1268C20.8357 27.3094 20.2885 27.2292 20.1829 27.365C20.0003 27.5977 19.8629 27.7018 19.8486 28.4753C20.1011 28.2037 20.4315 27.7891 20.7905 27.9726C21.5569 28.3681 20.7524 29.6928 20.0296 29.912C19.4125 30.097 18.8415 29.9033 18.4595 29.364C17.906 28.5865 18.307 27.6446 17.9155 26.8567C17.5875 26.9362 17.6621 27.365 17.4914 27.2888C16.8894 27.0092 16.5479 26.3659 16.1119 25.8259C15.9308 25.8918 15.8522 26.0586 15.6775 26.0514C15.4193 26.0395 14.9333 25.9577 14.8301 26.0903C14.7109 26.2396 14.6228 27.3325 15.687 27.7296C16.4097 27.9988 16.9799 28.2386 17.435 28.8033C17.13 28.8271 17.0236 28.6802 16.7758 28.6691C16.5288 28.6604 16.3748 28.7572 16.1897 28.8518C16.0118 28.9447 15.8053 29.2909 15.8411 29.5681C16.0063 30.8928 17.5613 30.9071 18.2761 31.7474C18.3992 31.8887 18.0886 32.4622 17.7964 32.6964C17.547 32.8958 16.949 32.397 17.0451 31.9737C17.1245 31.6362 16.3073 31.4106 16.0229 31.795C16.1357 31.7839 16.1651 31.8586 16.154 31.9126C16.1031 32.2231 16.4899 32.2342 16.4772 32.3931C16.4605 32.6099 16.2715 32.2986 16.1206 32.2739C15.7934 32.2056 15.4646 32.3208 15.2724 32.5861C15.216 32.6655 15.0858 32.7933 15.1422 32.9276C15.3939 32.8052 15.525 33.196 15.7593 33.0769C15.9038 33.0022 16.019 32.8767 16.1921 32.9204C16.2604 32.9387 16.3303 33.0316 16.2683 33.0737C15.8109 33.3659 15.4432 33.7781 15.7743 34.2483C15.7847 34.1379 15.8704 34.0625 15.9403 34.0418C16.0738 34.0053 16.2517 34.095 16.3819 34.0537C16.5947 33.9814 16.4852 33.7686 16.567 33.6185C16.6932 33.3794 17.1261 32.9824 17.3715 33.2714C17.4167 33.3223 17.381 33.5153 17.2508 33.52C17.3842 33.5145 17.5049 33.6471 17.6193 33.6209C17.6518 33.6177 17.686 33.6177 17.7154 33.6034C17.74 33.5899 17.7694 33.5844 17.79 33.5637C17.8432 33.5089 17.9052 33.4517 17.9139 33.3659C18.0124 33.3747 18.1371 33.3826 18.2014 33.3C18.2634 33.2166 18.3412 33.1507 18.4111 33.0872" fill="#CD1543"/>
<path d="M16.1501 23.5553C17.0023 23.317 17.9498 22.8739 18.1539 21.9264C18.412 22.0821 18.4938 22.4363 18.4954 22.6531C18.5145 23.838 17.9966 24.8633 18.2484 26.1078C18.2754 26.2492 18.5319 26.6884 18.416 26.6368C18.2738 26.5748 17.9728 26.2905 17.8092 26.4215C17.6035 26.582 17.6162 26.8393 17.5162 26.7789C17.1413 26.5526 16.7458 26.2142 16.5647 25.7814C16.4948 25.617 16.5234 25.2668 16.4773 25.3144C16.193 25.6257 15.6093 25.6917 15.178 25.7568C15.2757 25.6694 15.3647 25.3168 15.3488 25.2437C15.0089 25.073 14.5205 25.6551 14.53 25.5805C14.5467 25.3946 14.5673 25.3335 14.5856 25.2827C14.8397 24.5401 15.3154 23.7848 16.1501 23.5553Z" fill="#CD1543"/>
<path d="M9.81382 3.34207C10.0346 3.33571 10.1974 3.19991 10.3388 3.0506C10.3277 3.17449 10.5103 3.3508 10.4428 3.48423C10.3594 3.65021 10.1434 3.75187 10.1037 3.90594C10.0148 4.22045 10.2705 4.53098 10.0846 4.84468C9.53665 5.7723 8.34218 5.46574 7.52575 5.66826C7.58293 5.57057 7.51225 5.42127 7.4503 5.38076C7.81166 5.42683 8.29532 5.34899 8.39301 5.0742C8.50976 4.73747 8.57012 4.48729 8.41128 4.20933C8.15158 3.74949 7.60755 3.96313 7.19934 4.12435C7.1358 3.84003 7.40344 3.6661 7.55672 3.62718C7.98877 3.51282 8.37951 3.32618 8.78375 3.17529C9.13558 3.04345 9.45405 3.3508 9.81382 3.34207ZM9.20944 3.8027C9.24597 3.78602 9.26345 3.7614 9.25948 3.75743C8.95053 3.3238 8.57885 3.36828 8.42081 3.75346C8.31359 4.01475 8.93465 3.93056 9.20944 3.8027Z" fill="#CD1543"/>
<path d="M25.585 5.08835C25.4683 5.18842 25.2721 5.18365 25.1403 5.27657C25.0593 5.33376 24.9862 5.39094 24.902 5.44256C24.8631 5.4648 24.7456 5.51721 24.7035 5.53072C24.5836 5.5601 24.609 5.5458 24.4994 5.5601C24.4343 5.56963 24.4033 5.57281 24.3374 5.57281C24.2722 5.57281 24.0697 5.57916 24.0062 5.57757C23.8513 5.5744 23.8243 5.58551 23.6679 5.56089C23.5797 5.5458 23.4939 5.52198 23.409 5.4918C23.3534 5.47512 23.293 5.464 23.2326 5.464C23.239 5.39967 23.2469 5.33455 23.2962 5.29087C23.3613 5.23686 23.3748 5.2861 23.4677 5.27737C23.4725 5.27737 23.6027 5.28769 23.6075 5.28769C23.6282 5.2861 23.6552 5.2861 23.6798 5.28452C23.7187 5.27737 23.7544 5.26863 23.7902 5.25195C23.8386 5.22892 23.8879 5.21542 23.9307 5.18286C23.9442 5.16777 23.9617 5.15903 23.9776 5.14156C24.0086 5.11376 24.0507 5.09947 24.0793 5.06373C24.1674 4.95413 24.2341 4.8493 24.2421 4.7119C24.2516 4.60786 24.2587 4.50144 24.2421 4.39581C24.2373 4.37913 24.2349 4.36325 24.2341 4.34657C24.2278 4.26398 24.1865 4.18932 24.1468 4.11229C23.9101 3.66118 23.3422 4.10117 22.9523 4.08211C22.9523 3.99792 22.9436 3.83749 22.988 3.7819C23.266 3.42293 23.6949 3.60003 23.9188 3.43484C24.667 2.8789 24.8663 3.27918 25.651 3.49599C25.8853 3.56111 26.222 3.41339 26.4428 3.31809C26.4984 3.29585 26.4968 3.64927 26.4698 3.71995C26.3769 3.96854 26.1187 3.95662 26.029 4.1782C25.8972 4.50621 25.8765 4.96684 25.531 5.12965M25.0434 3.63736C25.0776 3.61909 25.0164 3.66436 25.0434 3.63577C24.7059 3.4674 24.2659 3.24661 24.1118 3.69454C23.9982 4.02731 24.7503 3.79699 25.0434 3.63736Z" fill="#CD1543"/>
<path d="M17.2252 21.1374C17.5715 21.22 17.9496 21.2287 18.1727 20.9254C18.2839 21.3963 17.8527 21.4551 17.774 21.6838C17.6525 22.0333 17.6597 22.3827 17.3221 22.5646C16.6479 22.9243 15.8036 23.3564 15.0301 23.4167C15.0364 23.323 14.9713 23.1491 15.0952 23.1419C15.3652 23.1308 15.5765 22.9291 15.6384 22.7687C15.7218 22.5447 15.6265 22.0047 15.424 21.899C15.1905 21.7751 14.9864 21.9642 14.7728 22.0587C14.683 21.8204 15.0531 21.4289 15.6329 21.4614C15.617 21.4606 15.9196 21.1326 15.9053 21.1422C16.2857 20.8833 16.7003 21.0135 17.2252 21.1374ZM16.1952 21.7434C16.3286 21.7926 16.7265 21.5734 16.871 21.4932C16.9052 21.4749 16.9306 21.4392 16.9576 21.4106C16.96 21.4082 16.9552 21.4003 16.9489 21.4003C16.8345 21.3757 16.7328 21.3661 16.6201 21.3518C16.5375 21.3431 16.4739 21.2883 16.3898 21.2708C16.3691 21.2661 16.3477 21.2692 16.3262 21.2772C16.2945 21.2907 16.2817 21.3129 16.2571 21.3256C16.2166 21.3431 16.1602 21.3431 16.1221 21.3749C16.0856 21.4098 16.053 21.4416 16.0427 21.4908C16.026 21.5448 16.0395 21.625 16.0784 21.6727C16.1078 21.7108 16.1531 21.7291 16.1952 21.7434Z" fill="#CD1543"/>
<path d="M27.7415 17.852C27.7304 17.7385 28.0171 17.3986 28.0227 17.1476C28.0489 16.3002 28.5619 15.8991 28.577 14.9922C28.5802 14.7547 27.6002 14.5339 27.5581 14.0224C27.5382 13.7699 27.4525 13.4046 27.7074 13.4085C28.0322 13.4149 28.3507 13.3585 28.5818 13.1552C29.6063 12.2514 28.7406 11.0188 28.6167 9.93076C28.5889 9.69171 29.0313 9.17866 29.0186 9.0095C28.9479 8.08664 28.7764 7.24241 29.106 6.33545C28.8486 6.56656 28.77 6.94697 28.554 7.14314C28.4492 7.23844 28.3983 7.02639 28.4047 6.99066C28.5349 6.1917 28.8518 5.49281 29.2219 4.73673C29.6595 3.83532 29.4387 3.10467 28.6294 2.83782C27.8893 2.59082 27.1729 3.28018 27.0919 3.99178C27.0188 4.63984 27.2205 5.42053 27.3754 5.95423C27.4183 6.1091 27.3921 6.28621 27.4247 6.42122C27.5581 5.88434 27.5732 5.32285 27.5636 4.75341C27.5621 4.61363 27.6732 4.42859 27.8146 4.3857C28.2951 4.24672 28.5461 4.59537 28.5135 4.86619C28.4079 5.71915 28.2347 6.37118 28.0322 7.21621C27.8003 8.18592 28.1466 9.14292 28.2474 10.0801C27.8773 9.86405 27.4739 9.85293 27.3317 10.4295C27.2531 10.7377 27.5303 11.0609 27.6153 11.3309C27.624 10.9632 27.9719 10.4589 28.3102 10.6852C28.7255 10.9608 28.7406 12.2855 28.6501 12.4626C28.4476 12.8455 28.1164 13.121 27.6558 12.9836C27.3969 12.9082 27.5025 12.5238 27.346 12.3626C26.5193 11.5072 26.142 10.4859 26.0721 9.30255C26.0618 9.13101 26.1532 8.67673 26.1269 8.66879C25.0453 8.22245 24.5481 8.6664 24.0978 9.30255C24.0207 9.10956 23.6101 8.84033 23.576 8.90069C23.3719 9.2819 23.4307 9.97206 23.7372 10.2373C24.5703 10.9608 25.3979 11.4445 25.8664 12.4746C25.3653 12.5389 24.8769 12.6834 24.6855 13.206C24.4845 13.7532 24.5536 14.5109 25.1294 14.7325C25.6004 14.9135 26.4065 14.7126 26.5836 14.7356C27.0832 14.8008 27.6415 15.2296 27.5628 15.7022C27.5589 15.7244 27.3492 16.8283 26.8719 16.5551C26.613 16.4074 26.7583 15.8014 26.3644 15.7101C25.8347 15.5791 25.7044 16.3201 25.7704 16.2565C25.9403 16.0969 26.0571 16.3606 26.3843 16.544C25.2748 16.3018 25.6202 17.3191 25.6592 17.208C25.7171 17.0475 25.9181 17.2127 26.316 17.1881C26.3311 17.1881 26.2294 17.2707 26.2246 17.2763C26.1619 17.3803 26.1317 17.4295 26.0864 17.5399C26.0634 17.5892 26.0674 17.6456 26.0729 17.6996C26.0793 17.752 26.0976 17.802 26.1261 17.8489C26.1317 17.8592 26.142 17.8656 26.1539 17.8727C26.1595 17.8743 26.1746 17.9005 26.1778 17.9005C26.2008 17.9021 26.1563 17.8219 26.2207 17.8171C26.2373 17.8155 26.2826 17.8076 26.2953 17.8123C26.3247 17.8235 26.3636 17.8441 26.393 17.8505C26.4224 17.8592 26.451 17.8656 26.4835 17.8687C26.5598 17.8791 26.586 17.8806 26.6519 17.8584C26.7083 17.837 26.7647 17.8266 26.8163 17.7893C26.7464 17.837 26.8957 17.7154 26.891 17.7305C26.9585 17.5836 27.0014 17.6257 27.0172 17.5995C27.1348 17.3747 27.2372 17.3525 27.4969 17.3843C27.5231 17.3882 27.5708 17.4422 27.5867 17.4645C27.6049 17.4923 27.6582 17.6336 27.6494 17.5804C27.6685 17.6869 27.7328 17.7536 27.7415 17.852Z" fill="#CD1543"/>
<path d="M19.735 7.62971C19.6683 7.58523 19.6445 7.48278 19.5968 7.44069C19.5849 7.42481 19.5722 7.40892 19.5571 7.39145C19.5341 7.36842 19.5222 7.33427 19.5142 7.30171C19.4674 7.14287 19.4912 6.95385 19.6342 6.85061C19.6413 6.84584 19.6389 6.8379 19.6413 6.83234C19.6492 6.81645 19.6707 6.8109 19.6747 6.79739C19.6794 6.78389 19.7017 6.78389 19.6945 6.76563C19.704 6.77119 19.7048 6.7561 19.7088 6.75292C19.7374 6.71718 19.739 6.65047 19.6842 6.6322C19.7295 6.63617 19.7755 6.633 19.8224 6.6457C19.8399 6.64967 19.8605 6.65444 19.8764 6.65682C20.0519 6.67906 20.2727 6.75848 20.3195 6.93717L20.3807 7.00389C20.5634 7.43037 20.5014 8.47314 21.518 8.72331C22.0477 8.85356 22.5798 9.01875 23.1223 9.00922C22.992 9.53736 22.9936 10.2085 23.4113 10.5921C22.8022 10.2593 22.3972 10.3284 21.865 9.82724C21.63 9.60407 21.0788 9.29593 20.8119 9.3412C20.7016 9.36185 20.9636 8.99016 20.7206 8.91789C20.5594 8.86945 20.1313 8.88056 20.0575 8.99016C19.7064 9.5191 19.3363 9.51671 19.2124 9.62234C19.357 9.50083 18.6374 8.91471 19.5293 8.59863C19.6135 8.56765 19.6453 8.37228 19.5404 8.32463C19.3657 8.24203 19.2212 8.36275 19.0488 8.46282C18.8511 8.58195 18.8058 8.15149 18.4961 8.31192C18.4317 7.39463 19.249 7.31441 19.7366 7.88862C19.7708 7.93071 19.9074 7.87829 19.851 7.82826L19.735 7.62971Z" fill="#CD1543"/>
<path d="M3.61377 21.4091L16.2764 11.3403L28.9581 21.1335L28.4379 22.7004L16.2764 13.4211L4.23006 23.0745L3.61377 21.4091Z" fill="#231F20"/>
<path d="M5.23114 25.5493L16.2752 16.5098L27.3764 25.0807L26.6188 26.6024L16.2752 18.6557L6.00548 26.9963L5.23114 25.5493Z" fill="#231F20"/>
<path d="M161.934 11.0217H164.015V11.7153H161.934V11.0217ZM161.24 11.7153H161.934V14.4899H161.24V11.7153ZM161.934 14.4899H164.015V15.1836H161.934V14.4899ZM164.015 11.7153H164.708V12.409H164.015V11.7153ZM164.015 13.7963H164.708V14.4899H164.015V13.7963ZM166.487 11.0217H168.568V11.7153H166.487V11.0217ZM168.568 11.7153H169.261V14.4899H168.568V11.7153ZM165.793 11.7153H166.487V14.4899H165.793V11.7153ZM166.487 14.4899H168.568V15.1836H166.487V14.4899ZM170.346 11.0217H171.734V11.7153H171.04V15.1836H170.346V11.0217ZM171.734 11.7153H172.427V15.1836H171.734V11.7153ZM173.121 11.7153H172.427V11.0217H173.121V11.7153ZM173.121 11.7153H173.815V15.1836H173.121V11.7153ZM174.899 11.0217H175.593V11.7153H176.287V12.409H175.593V13.7963H176.287V14.4899H175.593V16.5709H174.899V11.0217ZM176.287 11.0217H177.674V11.7153H176.287V11.0217ZM177.674 11.7153H178.368V14.4899H177.674V11.7153ZM176.287 14.4899H177.674V15.1836H176.287V14.4899ZM179.452 11.0217H180.146V14.4899H179.452V11.0217ZM180.146 14.4899H181.533V15.1836H180.146V14.4899ZM182.227 11.0217H182.921V15.1836H182.227V14.4899H181.533V13.7963H182.227V11.0217ZM184.699 9.6344H185.393V11.0217H187.474V11.7153H185.393V14.4899H184.699V11.7153H184.005V11.0217H184.699V9.6344ZM185.393 14.4899H186.78V15.1836H185.393V14.4899ZM186.78 13.7963H187.474V14.4899H186.78V13.7963ZM189.252 11.0217H191.333V11.7153H189.252V11.0217ZM188.558 11.7153H189.252V12.409H191.333V11.7153H192.027V13.1026H189.252V14.4899H188.558V11.7153ZM189.252 14.4899H191.333V15.1836H189.252V14.4899ZM191.333 13.7963H192.027V14.4899H191.333V13.7963ZM194.499 11.0217V11.7153H195.192V12.409H194.499V14.4899H195.886V15.1836H193.112V14.4899H193.805V11.7153H193.112V11.0217H194.499ZM196.58 11.0217V11.7153H195.192V11.0217H196.58ZM164.015 22.4899V23.1836H161.934V22.4899H164.015ZM161.934 22.4899H161.24V21.7963H161.934V22.4899ZM164.015 19.0217V19.7153H161.934V19.0217H164.015ZM161.24 19.7153H161.934V20.409H161.24V19.7153ZM161.934 20.409H164.015V21.1026H161.934V20.409ZM164.015 21.1026H164.708V22.4899H164.015V21.1026ZM164.015 19.7153H164.708V20.409H164.015V19.7153ZM166.487 19.0217H168.568V19.7153H166.487V19.0217ZM165.793 19.7153H166.487V22.4899H165.793V19.7153ZM166.487 22.4899H168.568V23.1836H166.487V22.4899ZM168.568 19.7153H169.261V20.409H168.568V19.7153ZM168.568 21.7963H169.261V22.4899H168.568V21.7963ZM171.734 19.7153H170.346V19.0217H172.427V22.4899H173.815V23.1836H170.346V22.4899H171.734V19.7153ZM171.734 17.6344H172.427V18.328H171.734V17.6344ZM175.593 19.0217H177.674V19.7153H175.593V19.0217ZM174.899 19.7153H175.593V20.409H177.674V19.7153H178.368V21.1026H175.593V22.4899H174.899V19.7153ZM175.593 22.4899H177.674V23.1836H175.593V22.4899ZM177.674 21.7963H178.368V22.4899H177.674V21.7963ZM179.452 19.0217H180.146V19.7153H180.84V20.409H180.146V23.1836H179.452V19.0217ZM180.84 19.0217H182.227V19.7153H180.84V19.0217ZM182.227 19.7153H182.921V23.1836H182.227V19.7153ZM184.699 19.0217H186.78V19.7153H184.699V19.0217ZM184.005 19.7153H184.699V22.4899H184.005V19.7153ZM184.699 22.4899H186.78V23.1836H184.699V22.4899ZM186.78 19.7153H187.474V20.409H186.78V19.7153ZM186.78 21.7963H187.474V22.4899H186.78V21.7963ZM189.252 19.0217H191.333V19.7153H189.252V19.0217ZM188.558 19.7153H189.252V20.409H191.333V19.7153H192.027V21.1026H189.252V22.4899H188.558V19.7153ZM189.252 22.4899H191.333V23.1836H189.252V22.4899ZM191.333 21.7963H192.027V22.4899H191.333V21.7963ZM161.24 27.0217H161.934V30.4899H161.24V27.0217ZM164.015 27.0217H164.708V31.1836H163.321V30.4899H164.015V27.0217ZM163.321 30.4899H162.627V27.0217H163.321V30.4899ZM161.934 30.4899H162.627V31.1836H161.934V30.4899ZM166.487 27.0217H168.568V27.7153H166.487V27.0217ZM165.793 27.7153H166.487V28.409H168.568V27.7153H169.261V29.1026H166.487V30.4899H165.793V27.7153ZM166.487 30.4899H168.568V31.1836H166.487V30.4899ZM168.568 29.7963H169.261V30.4899H168.568V29.7963ZM170.346 25.6344H171.04V27.7153H171.734V28.409H171.04V29.7963H171.734V30.4899H171.04V31.1836H170.346V25.6344ZM171.734 30.4899H173.121V31.1836H171.734V30.4899ZM173.121 27.7153H173.815V30.4899H173.121V27.7153ZM171.734 27.0217H173.121V27.7153H171.734V27.0217ZM176.287 27.0217V27.7153H176.98V28.409H176.287V30.4899H177.674V31.1836H174.899V30.4899H175.593V27.7153H174.899V27.0217H176.287ZM178.368 27.0217V27.7153H176.98V27.0217H178.368ZM180.84 27.7153H179.452V27.0217H181.533V30.4899H182.921V31.1836H179.452V30.4899H180.84V27.7153ZM180.84 25.6344H181.533V26.328H180.84V25.6344ZM184.005 27.0217H184.699V27.7153H185.393V28.409H184.699V31.1836H184.005V27.0217ZM185.393 27.0217H186.78V27.7153H185.393V27.0217ZM186.78 27.7153H187.474V31.1836H186.78V27.7153ZM189.252 27.0217H190.639V27.7153H189.252V27.0217ZM188.558 27.7153H189.252V30.4899H188.558V27.7153ZM189.252 30.4899H190.639V31.1836H189.252V30.4899ZM189.252 31.8772H191.333V32.5709H189.252V31.8772ZM190.639 29.7963H191.333V28.409H190.639V27.7153H191.333V27.0217H192.027V31.8772H191.333V30.4899H190.639V29.7963Z" fill="#B52828"/>
<path d="M65.2686 11.8393C65.2686 11.966 65.1103 12.0926 64.8253 12.2193C64.5403 12.3143 64.0652 12.6627 63.9386 13.0744L58.8083 30.6503C58.745 30.8403 58.3016 30.9353 57.9216 30.9353C57.5416 30.9353 57.1615 30.872 57.0982 30.682L52.538 17.888C52.4746 17.7296 52.2846 17.7613 52.2213 17.9196L47.471 30.6503C47.4077 30.8403 47.0277 30.9353 46.6476 30.9353C46.2676 30.9353 45.8243 30.872 45.7609 30.682L40.5673 13.0427C40.4406 12.6627 40.0289 12.4727 39.6806 12.3777L39.2056 12.251C38.9522 12.1877 38.6989 12.061 38.6989 11.871C38.6989 11.7126 38.9205 11.6176 39.2056 11.6176H44.3042C44.5892 11.6176 44.7792 11.681 44.7792 11.8393C44.7792 12.0293 44.5575 12.156 44.2725 12.2193C43.6075 12.3143 43.4491 13.0427 43.5758 13.5494L46.806 26.2801C46.8376 26.4701 47.1543 26.4384 47.2177 26.2801L52.0946 12.5043C52.1579 12.3143 52.4429 12.251 52.6963 12.251C52.918 12.251 53.2347 12.3143 53.298 12.5043L58.0799 26.2801C58.1433 26.4701 58.4599 26.4068 58.4916 26.2484L61.5634 14.1511C61.6268 13.9294 61.6901 13.5494 61.6901 13.296C61.6901 12.536 61.1201 12.4093 60.5184 12.2193C60.265 12.1243 60.0117 12.0293 60.0117 11.8393C60.0117 11.681 60.2334 11.6176 60.5184 11.6176H64.7619C65.047 11.6176 65.2686 11.681 65.2686 11.8393ZM77.1601 30.3653C77.1601 30.5553 76.9384 30.6187 76.6534 30.6187H73.5183C73.2332 30.6187 73.0749 30.4286 72.9799 30.2703L72.7265 29.8269C72.6315 29.6686 72.5365 29.6053 72.4099 29.6053C72.2199 29.6053 72.1248 29.6686 71.9982 29.7636C70.8898 30.5236 69.5597 30.9353 68.0396 30.9353C65.8545 30.9353 64.1444 29.7636 64.1444 27.5152C64.1444 26.3434 64.7461 24.9817 66.3295 24.285C67.5013 23.7783 69.243 23.5566 70.7314 23.1132C71.6498 22.8282 72.4099 22.4482 72.4099 21.4982V20.2631C72.4099 18.743 70.6681 18.2046 69.528 18.2046C67.1212 18.2046 66.2345 19.218 65.7278 21.5298C65.6962 21.6248 65.6012 21.6882 65.5062 21.6882C65.4111 21.6882 65.3161 21.6248 65.3161 21.4982L65.2845 17.698C65.2845 17.5079 65.4111 17.3813 65.6012 17.3813C66.9312 17.2863 68.2296 17.0012 69.5914 17.0012C72.7582 17.0012 74.69 18.078 74.69 21.7198V28.4019C74.69 29.1936 75.1333 29.7003 75.7034 29.8269L76.6534 30.017C76.9384 30.0803 77.1601 30.1753 77.1601 30.3653ZM72.4099 27.3251V24.19C72.4099 23.9366 72.2832 23.8416 72.0615 23.9366L67.913 25.14C66.9312 25.425 66.3612 26.0901 66.3612 26.9768C66.3612 28.6235 67.1212 29.7319 68.8313 29.7319C70.7948 29.7319 72.4099 28.7185 72.4099 27.3251ZM85.6334 29.8269C85.6967 29.9536 85.6651 30.017 85.5701 30.0803C85.0317 30.492 83.8916 30.8087 82.9732 30.8087C80.4081 30.8087 79.078 30.017 79.078 27.9268V18.838H76.5762C76.4179 18.838 76.2595 18.7113 76.2595 18.553V17.6346C76.2595 17.4446 76.3862 17.3179 76.5762 17.3179H78.413C78.7297 17.3179 79.078 17.0646 79.268 16.5896L80.7565 13.0427C80.8198 12.8844 80.9148 12.7577 81.0731 12.7577C81.1998 12.7577 81.3582 12.8527 81.3582 13.1377V17.3179H84.9684C85.19 17.3179 85.285 17.3813 85.285 17.5713V18.648C85.285 18.838 85.1584 18.9014 85 18.9014L81.3582 18.838V27.3251C81.3582 28.7502 81.6432 29.8586 83.3216 29.8586C83.9866 29.8586 84.81 29.6053 85.1584 29.3836C85.2534 29.2886 85.4117 29.2886 85.475 29.4153L85.6334 29.8269ZM97.0946 22.9549C97.0946 23.3983 96.7463 23.905 96.3662 23.905H89.0509C88.7025 23.905 88.3541 24.19 88.3858 24.5383C88.5442 28.2435 90.6343 29.4786 92.4077 29.4786C93.7061 29.4786 95.1945 28.4969 95.7646 27.5785C95.8279 27.4518 95.9229 27.4201 96.0179 27.4835L96.5246 27.8952C96.6196 27.9902 96.6196 28.0535 96.5879 28.1485C95.7329 29.7636 93.9278 30.9353 91.7743 30.9353C88.8925 30.9353 85.9157 28.9719 85.9157 23.905C85.9157 19.7564 88.6708 17.0012 91.8693 17.0012C94.3395 17.0012 97.0946 18.7113 97.0946 22.9549ZM94.6245 21.6248C94.6245 19.218 93.2944 18.078 91.8693 18.078C90.0642 18.078 88.7975 19.7247 88.4808 22.2265C88.4492 22.5749 88.6075 22.7966 88.9558 22.7966C88.9558 22.7966 90.5076 22.8282 91.2043 22.8282H92.1544C92.7561 22.8282 93.4844 22.7966 93.8328 22.6699C94.4345 22.5115 94.6245 22.1315 94.6245 21.6248ZM107.994 17.6663L107.677 20.1681C107.646 20.4531 107.582 20.6748 107.361 20.6748C107.044 20.6748 107.012 20.0414 106.886 19.7564C106.569 18.9964 105.999 18.7747 105.017 18.7747C103.909 18.7747 102.959 19.4397 102.42 20.2948C102.199 20.6431 102.04 21.2131 102.04 21.6565V28.4019C102.04 29.1936 102.515 29.6686 103.085 29.8269L103.75 30.017C104.035 30.112 104.257 30.207 104.257 30.3653C104.257 30.5553 104.035 30.6187 103.75 30.6187H98.0818C97.7968 30.6187 97.5751 30.5553 97.5751 30.397C97.5751 30.207 97.7968 30.112 98.0818 30.017L98.7468 29.8269C99.3169 29.6686 99.7602 29.1936 99.7602 28.4019V19.5031C99.7602 18.7113 99.2852 18.2046 98.7152 18.1096L97.7334 17.9196C97.4484 17.8563 97.2267 17.7296 97.2267 17.5713C97.2267 17.3813 97.4484 17.3179 97.7334 17.3179H100.9C101.185 17.3179 101.344 17.4763 101.407 17.698L101.882 19.1864C101.914 19.2814 102.009 19.3447 102.104 19.3447C102.167 19.3447 102.199 19.313 102.262 19.2497C103.275 17.7296 104.637 17.0012 106.411 17.0012C106.727 17.0012 107.202 17.0963 107.487 17.1913C107.677 17.2546 108.026 17.4129 107.994 17.6663ZM114.641 30.3653C114.641 30.5553 114.42 30.6187 114.135 30.6187H109.764C109.479 30.6187 109.353 30.5553 109.353 30.397C109.353 30.207 109.574 30.1436 109.764 29.9536C109.986 29.7319 110.144 29.2886 110.144 28.3385V12.2193C110.144 11.4276 109.701 10.9209 109.099 10.8259L108.023 10.6359C107.769 10.6042 107.516 10.4776 107.516 10.2876C107.516 10.0975 107.738 10.0342 108.023 10.0342H112.108C112.361 10.0342 112.551 10.1609 112.551 10.4142L112.425 12.5043V28.4019C112.425 29.1936 112.9 29.6686 113.47 29.8269L114.166 30.017C114.42 30.112 114.641 30.207 114.641 30.3653ZM127.51 23.9366C127.51 27.5785 125.325 30.9353 121.398 30.9353C117.471 30.9353 115.286 27.5785 115.286 23.9366C115.286 20.2948 117.502 17.0012 121.398 17.0012C125.325 17.0012 127.51 20.2948 127.51 23.9366ZM125.039 24.38C125.039 21.9415 124.469 18.3313 121.334 18.3313C118.421 18.3313 117.756 21.1498 117.756 23.5249C117.756 25.9001 118.389 29.7953 121.493 29.7953C124.406 29.7953 125.039 26.6601 125.039 24.38ZM141.011 23.9366C141.011 27.5785 138.826 30.9353 134.899 30.9353C130.972 30.9353 128.787 27.5785 128.787 23.9366C128.787 20.2948 131.004 17.0012 134.899 17.0012C138.826 17.0012 141.011 20.2948 141.011 23.9366ZM138.541 24.38C138.541 21.9415 137.971 18.3313 134.835 18.3313C131.922 18.3313 131.257 21.1498 131.257 23.5249C131.257 25.9001 131.89 29.7953 134.994 29.7953C137.907 29.7953 138.541 26.6601 138.541 24.38Z" fill="black"/>
<path d="M40.5852 0.820113H41.3101V4.33152C41.3101 4.74172 41.3627 5.05098 41.4679 5.25931C41.5152 5.35595 41.5678 5.43004 41.6258 5.48159C41.7074 5.55461 41.8212 5.59112 41.9673 5.59112C42.4011 5.59112 42.618 5.17125 42.618 4.33152V0.820113H43.3428V4.38306C43.3428 4.83622 43.2762 5.21098 43.1431 5.50736C43.1001 5.59971 43.0507 5.68561 42.9949 5.76508C42.7393 6.11944 42.3936 6.29662 41.9576 6.29662C41.6032 6.29662 41.3026 6.16883 41.0556 5.91326C40.742 5.58682 40.5852 5.07675 40.5852 4.38306V0.820113ZM44.9332 0.820113H45.7643L46.7533 3.46494C46.8693 3.77421 46.9853 4.2381 47.1013 4.85662L47.1238 4.96293H47.1496C47.068 4.27568 47.0196 3.44884 47.0046 2.48239L46.9788 0.820113H47.7037V6.16454H47.0562L45.9029 3.15568C45.8062 2.90226 45.6698 2.39434 45.4937 1.63192H45.468C45.5603 2.45018 45.6129 3.26414 45.6258 4.0738L45.658 6.16454H44.9332V0.820113ZM49.7483 0.820113H51.5974V1.41286H51.0562V5.57179H51.5974V6.16454H49.7483V5.57179H50.2895V1.41286H49.7483V0.820113ZM53.5293 0.820113H54.267L54.8629 4.00937C54.9166 4.29931 54.9628 4.63219 55.0015 5.00803L55.0144 5.124H55.0401C55.0831 4.69447 55.1335 4.32293 55.1915 4.00937L55.7843 0.820113H56.5252L55.3913 6.23863H54.6632L53.5293 0.820113ZM58.2412 0.820113H60.5704V1.51273H58.9854V3.07837H60.3803V3.76454H58.9854V5.45259H60.6284V6.16454H58.2412V0.820113ZM62.4378 0.820113H63.6168C63.9948 0.820113 64.3019 0.921053 64.5382 1.12293C64.6198 1.1938 64.6982 1.28937 64.7734 1.40964C64.9301 1.65877 65.0085 1.9487 65.0085 2.27944C65.0085 2.69394 64.9033 3.03004 64.6928 3.28776C64.5382 3.47676 64.3266 3.59595 64.0582 3.64535V3.66468C64.2944 3.7828 64.4781 3.99971 64.6091 4.31541C64.7594 4.66978 64.9806 5.28615 65.2727 6.16454H64.3964C64.0979 5.13582 63.9068 4.53125 63.823 4.35085C63.6985 4.0738 63.5331 3.93528 63.3269 3.93528H63.1884V6.16454H62.4378V0.820113ZM63.1884 1.46763V3.30065H63.5331C63.7393 3.30065 63.9068 3.21582 64.0356 3.04615C64.1602 2.88508 64.2225 2.64991 64.2225 2.34065C64.2225 2.06145 64.1645 1.84347 64.0485 1.68669C63.9433 1.54065 63.7844 1.46763 63.5717 1.46763H63.1884ZM67.0564 4.93071C67.3721 5.36669 67.7092 5.58467 68.0679 5.58467C68.2333 5.58467 68.375 5.5181 68.4931 5.38494C68.5941 5.27112 68.6445 5.07675 68.6445 4.80186C68.6445 4.53769 68.5704 4.324 68.4223 4.16078C68.3321 4.05984 68.1667 3.92347 67.9262 3.75166L67.7619 3.63246C67.4741 3.42414 67.2711 3.23407 67.153 3.06226C66.9339 2.74226 66.8244 2.4126 66.8244 2.07327C66.8244 1.69743 66.9318 1.38387 67.1466 1.1326C67.3892 0.844811 67.7135 0.700919 68.1194 0.700919C68.5662 0.700919 68.9613 0.881321 69.3049 1.24213L68.9087 1.80266C68.8099 1.66092 68.7143 1.5589 68.622 1.49662C68.4953 1.41501 68.3428 1.37421 68.1645 1.37421C67.9777 1.37421 67.8338 1.44293 67.7329 1.58038C67.6384 1.70924 67.5911 1.87246 67.5911 2.07005C67.5911 2.27192 67.6534 2.45984 67.778 2.6338C67.8402 2.72186 67.982 2.85179 68.2032 3.0236L68.4416 3.21045L68.5028 3.25877C68.8206 3.5079 69.0397 3.71407 69.16 3.87729C69.3533 4.14145 69.4499 4.44427 69.4499 4.78575C69.4499 5.20884 69.3479 5.55139 69.1439 5.8134C68.899 6.12696 68.5457 6.28373 68.084 6.28373C67.5256 6.28373 67.051 6.02387 66.6601 5.50414L67.0564 4.93071ZM71.5203 0.820113H73.3694V1.41286H72.8282V5.57179H73.3694V6.16454H71.5203V5.57179H72.0615V1.41286H71.5203V0.820113ZM75.327 0.820113H78.2682V1.5385H77.1729V6.16454H76.4223V1.5385H75.327V0.820113ZM79.617 0.820113H80.4353L81.1537 3.13635L81.8688 0.820113H82.6871L81.5273 3.8483V6.16454H80.7767V3.8483L79.617 0.820113ZM89.8689 0.694476C90.3178 0.694476 90.6743 0.93716 90.9384 1.42253C91.2112 1.92508 91.3476 2.61125 91.3476 3.48105C91.3476 4.3036 91.2273 4.96508 90.9868 5.46548C90.7204 6.01528 90.3446 6.29018 89.8592 6.29018C89.3803 6.29018 89.0088 6.0185 88.7446 5.47514C88.4998 4.97045 88.3774 4.30467 88.3774 3.47783C88.3774 2.61877 88.5105 1.93904 88.7768 1.43864C89.041 0.942529 89.405 0.694476 89.8689 0.694476ZM89.8592 1.36776C89.6638 1.36776 89.5049 1.53421 89.3825 1.86709C89.2407 2.24508 89.1698 2.78307 89.1698 3.48105C89.1698 4.18763 89.2407 4.72991 89.3825 5.1079C89.5027 5.43004 89.6627 5.59112 89.8625 5.59112C90.0579 5.59112 90.2157 5.43541 90.336 5.124C90.4821 4.74602 90.5551 4.20051 90.5551 3.48749C90.5551 2.69072 90.4659 2.10548 90.2877 1.73179C90.1717 1.48911 90.0289 1.36776 89.8592 1.36776ZM93.1538 0.820113H95.4893V1.52562H93.9044V3.11702H95.3057V3.8032H93.9044V6.16454H93.1538V0.820113Z" fill="black"/>
<line opacity="0.6" x1="149.387" y1="8.18359" x2="149.387" y2="30.5018" stroke="#B38C00" stroke-width="1.48788"/>
</svg>
